<svg width="268" height="41" viewBox="0 0 268 41" fill="none" xmlns="http://www.w3.org/2000/svg">
<path d="M106.099 7.7998H109.399V9.19981H108.499L109.199 15.9998H110.199V17.3998H106.499V15.9998H107.599L106.899 9.69981L104.699 17.3998H102.899L100.899 9.7998L100.199 15.9998H101.399V17.3998H97.6992V15.9998H98.5992L99.3992 9.19981H98.4992V7.7998H101.899L103.899 15.3998L105.999 7.7998H106.099Z" fill="white"/>
<path d="M115.799 15.4998L116.299 16.6998C115.599 17.0998 114.699 17.3998 113.899 17.3998C111.699 17.3998 110.799 15.9998 110.799 14.0998C110.799 12.1998 111.799 10.7998 113.699 10.7998C115.599 10.7998 116.399 12.1998 116.399 13.5998C116.399 14.9998 116.399 14.3998 116.299 14.6998H112.399C112.399 15.5998 112.899 16.0998 113.899 16.0998C114.899 16.0998 115.199 15.8998 115.799 15.5998V15.4998ZM114.899 13.3998V13.1998C114.899 12.3998 114.399 11.9998 113.699 11.9998C112.999 11.9998 112.499 12.5998 112.399 13.3998H114.799H114.899Z" fill="white"/>
<path d="M122.3 12.8998H121.1L120.9 11.9998C120.6 11.9998 120.4 11.7998 120 11.7998C119.4 11.7998 119.2 12.0998 119.2 12.4998C119.2 12.8998 119.3 12.9998 119.8 13.1998L120.8 13.4998C122 13.8998 122.6 14.3998 122.6 15.3998C122.6 16.3998 121.9 17.3998 120 17.3998C118.1 17.3998 118.3 17.1998 117.6 16.9998V15.1998C117.5 15.1998 118.7 15.1998 118.7 15.1998L119 16.1998C119.3 16.2998 119.6 16.3998 120 16.3998C120.5 16.3998 120.9 16.1998 120.9 15.6998C120.9 15.1998 120.7 15.1998 120.3 14.9998L119.2 14.6998C118.1 14.3998 117.6 13.7998 117.6 12.7998C117.6 11.7998 118.2 10.7998 120.1 10.7998C122 10.7998 121.9 10.9998 122.4 11.1998V12.8998H122.3Z" fill="white"/>
<path d="M129.799 15.9H130.799V17.3H128.599V16.2C128.299 16.8 127.499 17.5 126.199 17.5C124.899 17.5 124.099 16.6 124.099 15V12.3H123.199V11H125.699V14.8C125.699 15.6 125.999 16 126.899 16C127.799 16 127.999 15.7 128.299 15.2V12.3H127.099V11H129.799V16V15.9Z" fill="white"/>
<path d="M131.5 10.9002H133.9V12.3002C134.1 11.7002 134.9 10.8002 135.7 10.8002C136.5 10.8002 136.4 10.8002 136.7 10.8002V12.6002C136.6 12.6002 135.4 12.4002 135.4 12.4002C134.8 12.4002 134.3 12.8002 134 13.2002V15.9002H135.4V17.2002H131.5V16.0002L132.4 15.7002V12.1002H131.5V10.7002V10.9002Z" fill="white"/>
<path d="M142.299 15.4998L142.799 16.6998C142.099 17.0998 141.199 17.3998 140.399 17.3998C138.199 17.3998 137.299 15.9998 137.299 14.0998C137.299 12.1998 138.299 10.7998 140.199 10.7998C142.099 10.7998 142.899 12.1998 142.899 13.5998C142.899 14.9998 142.899 14.3998 142.799 14.6998H138.899C138.899 15.5998 139.399 16.0998 140.399 16.0998C141.399 16.0998 141.699 15.8998 142.299 15.5998V15.4998ZM141.299 13.3998V13.1998C141.299 12.3998 140.799 11.9998 140.099 11.9998C139.399 11.9998 138.899 12.5998 138.799 13.3998H141.199H141.299Z" fill="white"/>
<path d="M148.7 12.8998H147.5L147.3 11.9998C147 11.9998 146.8 11.7998 146.4 11.7998C145.8 11.7998 145.6 12.0998 145.6 12.4998C145.6 12.8998 145.7 12.9998 146.2 13.1998L147.2 13.4998C148.4 13.8998 149 14.3998 149 15.3998C149 16.3998 148.3 17.3998 146.4 17.3998C144.5 17.3998 144.7 17.1998 144 16.9998V15.1998C143.9 15.1998 145.1 15.1998 145.1 15.1998L145.4 16.1998C145.7 16.2998 146 16.3998 146.4 16.3998C146.9 16.3998 147.3 16.1998 147.3 15.6998C147.3 15.1998 147.1 15.1998 146.7 14.9998L145.6 14.6998C144.5 14.3998 144 13.7998 144 12.7998C144 11.7998 144.6 10.7998 146.5 10.7998C148.4 10.7998 148.3 10.9998 148.8 11.1998V12.8998H148.7Z" fill="white"/>
<path d="M97.9988 35.2996V33.9996L98.6988 33.7996V27.1996H97.7988V25.7996H100.099V26.4996C100.399 26.0996 100.899 25.5996 101.899 25.5996C103.699 25.5996 104.599 26.7996 104.599 28.8996C104.599 30.9996 103.699 32.1996 101.899 32.1996C100.099 32.1996 100.599 31.8996 100.299 31.4996V33.6996H101.699V35.0996H98.0988L97.9988 35.2996ZM101.599 27.1996C100.999 27.1996 100.599 27.4996 100.399 27.6996V30.3996C100.599 30.5996 100.999 30.8996 101.599 30.8996C102.699 30.8996 102.999 30.0996 102.999 28.9996C102.999 27.8996 102.699 27.0996 101.599 27.0996V27.1996Z" fill="white"/>
<path d="M105.398 30.9H106.198V23.9H105.398V22.5H107.798V26.5C108.198 26.2 108.798 25.8 109.798 25.8C111.298 25.8 111.998 26.7 111.998 28.3V31H112.798V32.3H109.498V31H110.398V28.5C110.398 27.7 110.198 27.3 109.198 27.3C108.198 27.3 108.098 27.6 107.798 27.8V31H108.698V32.3H105.398V31V30.9Z" fill="white"/>
<path d="M113.598 34.0002H115.398L116.198 32.2002L113.998 27.2002H112.898V25.8002H115.698V27.1002L116.998 30.3002L118.298 27.1002H116.898V25.7002H120.698V27.1002H119.898L117.098 33.9002C116.598 35.0002 115.898 35.3002 115.098 35.3002C114.298 35.3002 114.098 35.3002 113.698 35.0002V33.9002L113.598 34.0002Z" fill="white"/>
<path d="M126.2 27.8998H125L124.8 26.9998C124.5 26.9998 124.3 26.7998 123.9 26.7998C123.3 26.7998 123.1 27.0998 123.1 27.4998C123.1 27.8998 123.2 27.9998 123.7 28.1998L124.7 28.4998C125.9 28.8998 126.5 29.3998 126.5 30.3998C126.5 31.3998 125.8 32.3998 123.9 32.3998C122 32.3998 122.2 32.1998 121.5 31.9998V30.1998C121.4 30.1998 122.6 30.1998 122.6 30.1998L122.9 31.1998C123.2 31.2998 123.5 31.3998 123.9 31.3998C124.4 31.3998 124.8 31.1998 124.8 30.6998C124.8 30.1998 124.6 30.1998 124.2 29.9998L123.1 29.6998C122 29.3998 121.5 28.7998 121.5 27.7998C121.5 26.7998 122.1 25.7998 124 25.7998C125.9 25.7998 125.8 25.9998 126.3 26.1998V27.8998H126.2Z" fill="white"/>
<path d="M127.299 30.9002H128.599V27.2002H127.299V25.8002H130.199V30.8002H131.399V32.1002H127.299V30.8002V30.9002ZM128.399 23.7002C128.399 23.0002 128.799 22.7002 129.399 22.7002C129.999 22.7002 130.399 23.0002 130.399 23.7002C130.399 24.4002 129.899 24.6002 129.399 24.6002C128.899 24.6002 128.399 24.3002 128.399 23.7002Z" fill="white"/>
<path d="M135 35.2994V33.8994H136.4V31.6994C136.1 31.9994 135.6 32.3994 134.7 32.3994C132.9 32.3994 132 31.1994 132 29.0994C132 26.9994 132.9 25.7994 134.7 25.7994C136.5 25.7994 136.2 26.1994 136.6 26.5994L136.8 25.3994H137.9V33.9994L138.7 34.1994V35.3994H134.9L135 35.2994ZM136.4 27.6994C136.2 27.3994 135.7 27.1994 135.1 27.1994C134 27.1994 133.7 27.9994 133.7 29.0994C133.7 30.1994 134 30.9994 135.1 30.9994C136.2 30.9994 136.2 30.6994 136.4 30.4994V27.7994V27.6994Z" fill="white"/>
<path d="M145.6 30.9H146.6V32.3H144.4V31.2C144.1 31.8 143.3 32.5 142 32.5C140.7 32.5 139.9 31.6 139.9 30V27.3H139V26H141.5V29.8C141.5 30.6 141.8 31 142.7 31C143.6 31 143.8 30.7 144.1 30.2V27.3H142.9V26H145.6V31V30.9Z" fill="white"/>
<path d="M152.299 30.4998L152.799 31.6998C152.099 32.0998 151.199 32.3998 150.399 32.3998C148.199 32.3998 147.299 30.9998 147.299 29.0998C147.299 27.1998 148.299 25.7998 150.199 25.7998C152.099 25.7998 152.899 27.1998 152.899 28.5998C152.899 29.9998 152.899 29.3998 152.799 29.6998H148.899C148.899 30.5998 149.399 31.0998 150.399 31.0998C151.399 31.0998 151.699 30.8998 152.299 30.5998V30.4998ZM151.399 28.3998V28.1998C151.399 27.3998 150.899 26.9998 150.199 26.9998C149.499 26.9998 148.999 27.5998 148.899 28.3998H151.299H151.399Z" fill="white"/>
<path d="M158.8 27.8998H157.6L157.4 26.9998C157.1 26.9998 156.9 26.7998 156.5 26.7998C155.9 26.7998 155.7 27.0998 155.7 27.4998C155.7 27.8998 155.8 27.9998 156.3 28.1998L157.3 28.4998C158.5 28.8998 159.1 29.3998 159.1 30.3998C159.1 31.3998 158.4 32.3998 156.5 32.3998C154.6 32.3998 154.8 32.1998 154.1 31.9998V30.1998C154 30.1998 155.2 30.1998 155.2 30.1998L155.5 31.1998C155.8 31.2998 156.1 31.3998 156.5 31.3998C157 31.3998 157.4 31.1998 157.4 30.6998C157.4 30.1998 157.2 30.1998 156.8 29.9998L155.7 29.6998C154.6 29.3998 154.1 28.7998 154.1 27.7998C154.1 26.7998 154.7 25.7998 156.6 25.7998C158.5 25.7998 158.4 25.9998 158.9 26.1998V27.8998H158.8Z" fill="white"/>
<path d="M69.1995 26.6C68.5995 26.6 67.9995 26.3 67.5995 25.7C67.1995 24.8 67.4995 23.8 68.2995 23.3L83.0995 15.7C84.8995 14.7 86.6995 13.4 87.6995 12.6C87.2995 12.6 86.8995 12.6 86.5995 12.6C86.5995 12.6 80.5995 13.2 68.3995 15.3C67.3995 15.5 66.4995 14.8 66.3995 13.9C66.2995 13 66.8995 12 67.7995 11.9C80.1995 9.80002 86.0995 9.20002 86.2995 9.20002C87.3995 9.20002 89.8995 9.10002 91.1995 10.4C91.7995 11 91.9995 11.7 91.8995 12.5C91.6995 14.2 89.3995 16.4 84.7995 19L69.9995 26.7C69.6995 26.8 69.4995 26.9 69.1995 26.9V26.6Z" fill="white"/>
<path d="M23.2992 32.7004C23.0992 32.7004 22.9992 32.7004 22.7992 32.7004C21.8992 32.4004 21.2992 31.5004 21.5992 30.6004C23.7992 22.5004 26.2992 8.40043 23.8992 4.80043C23.5992 4.40043 23.3992 4.30043 23.0992 4.30043C19.1992 3.90043 10.0992 17.9004 3.79923 31.1004C3.39923 32.0004 2.29923 32.3004 1.49923 31.9004C0.599226 31.5004 0.299226 30.4004 0.699226 29.6004C3.99923 22.6004 15.3992 -0.0995652 23.4992 0.800435C24.7992 0.900435 25.9992 1.70043 26.7992 2.80043C28.3992 5.10043 28.5992 9.60043 28.1992 14.4004C29.6992 12.1004 30.6992 12.1004 31.2992 12.1004C31.8992 12.1004 32.5992 12.4004 33.0992 12.9004C34.3992 14.3004 34.2992 17.3004 33.8992 22.4004C33.8992 23.5004 33.6992 24.9004 33.6992 26.0004C35.3992 24.1004 37.7992 20.5004 39.7992 17.3004C39.7992 17.3004 39.7992 17.2004 39.8992 17.1004C39.9992 16.9004 41.1992 15.6004 42.9992 15.5004C43.7992 15.5004 45.0992 15.7004 46.3992 16.9004C46.7992 17.2004 47.1992 17.7004 47.6992 18.3004C50.6992 21.9004 56.1992 28.6004 66.0992 24.4004C66.9992 24.0004 67.9992 24.4004 68.3992 25.3004C68.7992 26.2004 68.3992 27.2004 67.4992 27.6004C55.1992 32.8004 48.0992 24.2004 44.9992 20.5004C44.5992 20.0004 44.1992 19.6004 43.9992 19.4004C43.7992 19.2004 43.4992 19.0004 43.2992 19.0004C43.0992 19.0004 42.7992 19.2004 42.6992 19.3004C35.3992 31.1004 33.2992 30.9004 32.3992 30.8004C29.7992 30.5004 30.0992 27.4004 30.4992 22.1004C30.5992 20.6004 30.7992 18.6004 30.7992 17.0004C29.1992 19.9004 26.8992 26.0004 25.1992 31.5004C24.9992 32.3004 24.2992 32.7004 23.4992 32.7004H23.2992Z" fill="white"/>
<path d="M67.7 40.6C66.7 40.6 66 39.8 66 38.8L66.4 9.7C66.4 8.7 67.2 8 68.1 8C69.1 8 69.8 8.8 69.8 9.8L69.4 38.9C69.4 39.9 68.6 40.6 67.7 40.6Z" fill="white"/>
<path d="M163.6 40.0999C163.5 40.0999 163.4 40.0999 163.3 40.0999C163 39.8999 162.9 39.5999 163.1 39.2999L184.9 1.59995C185.1 1.29995 185.4 1.19995 185.7 1.39995C186 1.59995 186.1 1.89995 185.9 2.19995L164.1 39.9C164 40.1 163.8 40.2 163.6 40.2" fill="white"/>
<path d="M209.7 33.2994C210.1 32.7994 210.3 32.2994 210.3 31.5994C210.3 30.8994 210 30.1994 209.5 29.6994C209 29.1994 208.4 28.8994 207.6 28.8994H205C204.6 28.8994 204.4 29.1994 204.4 29.4994V37.8994C204.4 38.2994 204.7 38.4994 205 38.4994H207.9C208.7 38.4994 209.3 38.1994 209.9 37.6994C210.4 37.1994 210.7 36.4994 210.7 35.6994V35.2994C210.7 34.6994 210.5 34.1994 210.2 33.6994C210.1 33.4994 209.9 33.1994 209.7 33.0994M208.1 32.2994C207.9 32.4994 207.7 32.5994 207.4 32.5994H206.2V30.7994H207.6C207.8 30.7994 208 30.7994 208.2 30.9994C208.4 31.1994 208.4 31.2994 208.4 31.5994C208.4 31.8994 208.4 32.0994 208.1 32.2994ZM206.2 34.3994H207.8C208.1 34.3994 208.3 34.4994 208.5 34.6994C208.7 34.8994 208.8 35.1994 208.8 35.4994V35.8994C208.8 36.0994 208.8 36.3994 208.5 36.4994C208.3 36.6994 208.1 36.7994 207.8 36.7994H206.1V34.3994H206.2Z" fill="white"/>
<path d="M215.501 28.7998C214.601 28.7998 213.801 29.0998 213.201 29.7998C212.601 30.3998 212.201 31.1998 212.201 32.0998V35.4998C212.201 36.3998 212.501 37.1998 213.201 37.7998C213.801 38.3998 214.601 38.7998 215.501 38.7998C216.401 38.7998 217.201 38.4998 217.801 37.7998C218.401 37.1998 218.801 36.3998 218.801 35.4998V32.0998C218.801 31.1998 218.501 30.3998 217.801 29.7998C217.201 29.1998 216.401 28.7998 215.501 28.7998ZM214.101 32.0998C214.101 31.6998 214.201 31.3998 214.501 31.0998C214.801 30.7998 215.101 30.6998 215.501 30.6998C215.901 30.6998 216.201 30.7998 216.501 31.0998C216.801 31.3998 216.901 31.6998 216.901 32.0998V35.4998C216.901 35.8998 216.801 36.1998 216.501 36.4998C216.201 36.7998 215.901 36.8998 215.501 36.8998C215.101 36.8998 214.801 36.7998 214.501 36.4998C214.201 36.1998 214.101 35.8998 214.101 35.4998V32.0998Z" fill="white"/>
<path d="M231.901 28.9994H229.801C229.401 28.9994 229.201 29.2994 229.201 29.5994V37.9994C229.201 38.3994 229.501 38.5994 229.801 38.5994H232.201C233.101 38.5994 233.801 38.2994 234.501 37.6994C235.101 37.0994 235.401 36.2994 235.401 35.3994V32.3994C235.401 31.3994 235.101 30.5994 234.401 29.8994C233.701 29.1994 232.901 28.8994 231.901 28.8994M232.201 36.7994H231.001V30.7994H231.901C232.401 30.7994 232.701 30.9994 233.101 31.2994C233.401 31.5994 233.601 31.9994 233.601 32.4994V35.4994C233.601 35.8994 233.501 36.1994 233.201 36.3994C232.901 36.6994 232.601 36.7994 232.301 36.7994" fill="white"/>
<path d="M242.3 36.7996H239.2V34.3996H241.8C242.1 34.3996 242.4 34.0996 242.4 33.7996V33.1996C242.4 32.7996 242.1 32.5996 241.8 32.5996H239.2V30.8996H242.2C242.6 30.8996 242.8 30.5996 242.8 30.2996V29.6996C242.8 29.2996 242.5 29.0996 242.2 29.0996H238C237.6 29.0996 237.4 29.3996 237.4 29.6996V38.0996C237.4 38.4996 237.7 38.6996 238 38.6996H242.3C242.7 38.6996 242.9 38.3996 242.9 38.0996V37.4996C242.9 37.0996 242.6 36.8996 242.3 36.8996" fill="white"/>
<path d="M249.201 29.4C249.201 29.1 248.901 29 248.601 29H247.501C247.201 29 247.001 29.2 246.901 29.4L244.301 37.8V38C244.301 38.4 244.601 38.6 244.901 38.6H245.501C245.801 38.6 246.001 38.4 246.101 38.2L246.901 35.7H249.201L250.001 38.2C250.001 38.5 250.301 38.6 250.601 38.6H251.201C251.601 38.6 251.801 38.3 251.801 38C251.801 37.7 251.801 37.8 251.801 37.8L249.201 29.4ZM248.801 33.9H247.401L248.101 31.6L248.801 33.9Z" fill="white"/>
<path d="M258.801 29H258.201C257.801 29 257.601 29.3 257.601 29.6V35.8C257.601 36.2 257.501 36.4 257.301 36.7C257.101 36.9 256.801 37.1 256.401 37.1C256.001 37.1 255.801 37 255.501 36.7C255.301 36.5 255.101 36.2 255.101 35.9V29.7C255.101 29.3 254.801 29.1 254.501 29.1H253.901C253.501 29.1 253.301 29.4 253.301 29.7V35.9C253.301 36.7 253.601 37.5 254.201 38.1C254.801 38.7 255.501 39 256.401 39C257.301 39 258.001 38.7 258.601 38.1C259.201 37.5 259.501 36.8 259.501 35.9V29.7C259.501 29.3 259.201 29.1 258.901 29.1" fill="white"/>
<path d="M265.201 33.7994L267.401 29.7994C267.401 29.3994 267.401 29.1994 267.301 29.0994C267.301 29.0994 267.101 28.8994 266.801 28.8994H266.201C265.901 28.8994 265.701 28.9994 265.601 29.2994L264.201 31.8994L262.801 29.2994C262.801 29.0994 262.501 28.8994 262.201 28.8994H261.601C261.301 28.8994 261.201 28.9994 261.101 29.0994C261.101 29.1994 260.901 29.3994 261.001 29.6994C261.001 29.7994 263.201 33.7994 263.201 33.7994L261.001 37.6994C261.001 38.0994 261.001 38.2994 261.001 38.3994C261.001 38.3994 261.201 38.5994 261.501 38.5994H262.101C262.301 38.5994 262.601 38.4994 262.701 38.1994L264.101 35.5994L265.501 38.1994C265.601 38.3994 265.801 38.5994 266.101 38.5994H266.701C267.001 38.5994 267.101 38.3994 267.201 38.3994C267.201 38.3994 267.401 38.0994 267.201 37.7994L265.001 33.7994H265.201Z" fill="white"/>
<path d="M227.101 37.8L225.401 34.6C225.601 34.5 225.801 34.3 226.001 34.1C226.501 33.6 226.801 32.9 226.801 32.2V31.7C226.801 30.9 226.501 30.3 226.001 29.8C225.501 29.3 224.801 29 224.101 29H221.401C221.001 29 220.801 29.3 220.801 29.6V38C220.801 38.4 221.101 38.6 221.401 38.6H222.001C222.401 38.6 222.601 38.3 222.601 38V34.9H223.601L225.301 38.2C225.401 38.4 225.601 38.6 225.901 38.6H226.501C226.801 38.6 226.901 38.4 227.001 38.4C227.001 38.4 227.201 38.1 227.001 37.8M225.001 31.7V32.2C225.001 32.4 225.001 32.6 224.701 32.8C224.501 33 224.301 33.1 224.101 33.1H222.601V30.9H224.101C224.301 30.9 224.501 30.9 224.701 31.1C224.901 31.3 225.001 31.5 225.001 31.7Z" fill="white"/>
<path d="M198.001 33.3998H197.801C197.801 33.2998 197.801 33.2998 197.801 33.2998C197.601 33.4998 197.301 33.5998 197.101 33.5998C196.601 33.5998 196.301 33.3998 196.001 32.8998C195.701 32.3998 196.001 32.7998 196.001 32.6998V31.5998C196.001 31.0998 196.201 30.7998 196.701 30.4998C197.101 30.3998 197.501 30.4998 197.801 30.5998V29.2998H198.101V33.5998M197.601 31.3998C197.601 31.1998 197.601 30.9998 197.401 30.8998C197.301 30.7998 197.101 30.6998 196.901 30.6998C196.701 30.6998 196.501 30.6998 196.401 30.8998C196.301 30.9998 196.201 31.1998 196.201 31.3998V32.2998C196.201 32.4998 196.201 32.6998 196.401 32.7998C196.501 32.8998 196.701 32.9998 196.901 32.9998C197.101 32.9998 197.301 32.9998 197.401 32.7998C197.501 32.6998 197.601 32.4998 197.601 32.2998V31.3998Z" fill="white"/>
<path d="M201 31.9996H199.4V32.1996C199.4 32.3996 199.4 32.5996 199.6 32.6996C199.7 32.7996 199.9 32.8996 200.1 32.8996C200.3 32.8996 200.6 32.8996 200.8 32.6996L201 32.9996C200.7 33.2996 200.2 33.2996 199.8 33.2996C199.4 33.2996 199.7 33.2996 199.6 33.2996C199.2 32.9996 198.9 32.6996 198.9 32.1996V30.9996C198.9 30.9996 198.9 30.8996 198.9 30.7996C199.2 30.2996 199.5 30.0996 200 30.0996C200.5 30.0996 200.6 30.1996 200.8 30.3996C201 30.5996 201.1 30.8996 201.1 31.1996V31.7996M200.6 31.2996C200.6 31.0996 200.6 30.9996 200.4 30.7996C200.3 30.6996 200.1 30.5996 199.9 30.5996C199.7 30.5996 199.6 30.5996 199.4 30.7996C199.3 30.8996 199.2 31.0996 199.2 31.2996V31.4996H200.4V31.2996H200.6Z" fill="white"/>
<path d="M222.4 5V8.8C222.4 9.3 222.8 9.6 223.3 9.6H228.5V10.9H223.3C222.7 10.9 222.4 11.3 222.4 11.7V15.7L220.8 16.6V11.7C220.8 11.3 220.5 10.9 219.9 10.9H218V9.6H219.9C220.4 9.6 220.8 9.3 220.8 8.8V5H222.4ZM222.5 4.5H220.7C220.5 4.5 220.3 4.6 220.3 4.8V8.7C220.3 8.9 220.2 9 219.9 9H217.9C217.6 9 217.5 9 217.5 9.3V10.9C217.5 11.1 217.6 11.2 217.9 11.2H219.9C220.1 11.2 220.3 11.2 220.3 11.5V17.2L222.9 15.7V11.5C222.9 11.3 223 11.2 223.3 11.2H228.6C228.9 11.2 229 11.1 229 10.9V9.3C229 9.1 228.9 9 228.6 9H223.3C223.1 9 222.9 8.9 222.9 8.7V4.8C222.9 4.6 222.8 4.5 222.5 4.5Z" fill="white"/>
<path d="M222.9 15.8994V20.3994C222.9 21.4994 223 22.3994 223.3 23.1994C223.6 23.8994 224.4 24.2994 225.5 24.2994C226.6 24.2994 226.5 24.2994 227.2 23.9994C227.9 23.7994 228.6 23.4994 229.5 23.1994V23.3994C229.5 23.3994 229.5 23.4994 229.5 23.5994C229 24.0994 228.1 24.4994 226.8 24.9994C225.5 25.4994 224.4 25.6994 223.3 25.6994C222.2 25.6994 221.6 25.3994 221 24.8994C220.4 24.3994 220 23.3994 220 22.0994V17.2994C220.1 17.2994 222.7 16.0994 222.7 16.0994L222.9 15.8994Z" fill="white"/>
<path d="M203.201 14.9002V20.1002C203.201 21.0002 203.501 21.8002 204.301 22.5002C205.001 23.2002 205.901 23.5002 206.901 23.5002C207.901 23.5002 208.801 23.2002 209.501 22.5002C210.201 21.8002 210.601 21.0002 210.601 20.1002V9.50019C210.601 9.30019 210.701 9.2002 210.901 9.2002H212.701C212.901 9.2002 213.101 9.20019 213.101 9.50019V20.1002C213.101 21.7002 212.501 23.0002 211.301 24.1002C210.101 25.2002 208.601 25.8002 206.901 25.8002C205.201 25.8002 203.701 25.2002 202.501 24.1002C201.301 23.0002 200.701 21.7002 200.701 20.1002V14.9002H203.201Z" fill="white"/>
<path d="M202.7 9.5V14.3H201.2V10.3V9.8H200.7C199.5 9.8 199 9.8 198.7 9.9C198.7 9.9 198.6 9.9 198.5 9.9C198.5 9.9 198.4 9.6 198.4 9.5C198.5 9.5 198.6 9.5 198.7 9.5C199 9.5 199.5 9.5 200.7 9.5C201.9 9.5 201.5 9.5 202 9.5C202.3 9.5 202.6 9.5 202.7 9.5ZM202.7 9C202.3 9 201.3 9.2 200.7 9.2C198.9 9.2 198.8 9.2 198.4 9.2C198 9.2 197.9 9.4 197.9 9.8C197.9 10.2 198.2 10.7 198.4 10.7C198.6 10.7 198.9 10.6 200.7 10.6V15.1H203.2V9.8C203.2 9.4 202.9 9.2 202.7 9.2V9Z" fill="white"/>
<path d="M192.601 3.2998C193.501 3.2998 194.601 4.0998 194.601 5.0998C194.601 6.0998 193.801 7.0998 192.601 7.0998C191.401 7.0998 190.801 5.9998 190.801 5.0998C190.801 4.1998 191.701 3.2998 192.601 3.2998ZM192.601 2.7998C191.501 2.7998 190.301 3.8998 190.301 5.0998C190.301 6.2998 191.301 7.5998 192.601 7.5998C193.901 7.5998 195.101 6.4998 195.101 5.0998C195.101 3.6998 193.801 2.7998 192.601 2.7998Z" fill="white"/>
<path d="M194.6 14.2998V24.9998C194.6 25.1998 194.5 25.2998 194.3 25.2998H192.7C192.4 25.2998 192.4 25.1998 192.4 24.9998V15.7998L194.7 14.2998H194.6Z" fill="white"/>
<path d="M194.1 9.59961V13.9996L192.8 14.8996V10.6996H191V9.59961H194.1ZM194.6 9.09961H190.5V11.1996H192.3V15.7996L194.6 14.2996V9.09961Z" fill="white"/>
</svg>
