<svg width="380" height="57" viewBox="0 0 380 57" fill="none" xmlns="http://www.w3.org/2000/svg">
<g clip-path="url(#clip0_2138_186)">
<mask id="mask0_2138_186" style="mask-type:luminance" maskUnits="userSpaceOnUse" x="0" y="0" width="380" height="57">
<path d="M379.56 0H0V57H379.56V0Z" fill="white"/>
</mask>
<g mask="url(#mask0_2138_186)">
<path d="M231.982 56.2875C231.84 56.2875 231.684 56.259 231.555 56.1735C231.144 55.9313 231.001 55.4183 231.242 55.005L262.202 1.29675C262.445 0.883498 262.957 0.740998 263.37 0.983248C263.781 1.2255 263.924 1.7385 263.682 2.15175L232.722 55.8457C232.566 56.1165 232.28 56.2733 231.982 56.2733" fill="#009DE0"/>
<path d="M150.123 10.2315H154.831V12.1695H153.536L154.588 21.7883H155.997V23.7263H150.792V21.7883H152.385L151.446 12.8108L148.374 23.7263H145.843L142.955 12.882L141.917 21.7883H143.609V23.7263H138.391V21.7883H139.699L140.85 12.1695H139.542V10.2315H144.349L147.165 21.0473L150.109 10.2315H150.123Z" fill="#3B1C13"/>
<path d="M164.018 21.1898L164.729 22.9425C163.775 23.541 162.453 23.94 161.259 23.94C158.115 23.94 156.822 21.945 156.822 19.1663C156.822 16.5728 158.215 14.421 161.003 14.421C163.79 14.421 164.828 16.4018 164.828 18.354C164.828 18.8528 164.771 19.5368 164.672 19.9073H159.168C159.211 21.1898 159.879 21.9593 161.272 21.9593C162.226 21.9593 163.164 21.6743 164.003 21.1755L164.018 21.1898ZM162.666 18.24C162.681 18.126 162.681 18.0263 162.681 17.955C162.681 16.8293 161.927 16.2735 161.003 16.2735C159.751 16.2735 159.268 17.157 159.196 18.2258H162.666V18.24Z" fill="#3B1C13"/>
<path d="M173.19 17.4563H171.441L171.185 16.245C170.829 16.1025 170.431 16.0313 169.934 16.0313C169.138 16.0313 168.781 16.4873 168.781 16.986C168.781 17.4278 168.967 17.7413 169.621 17.9693L171.057 18.411C172.707 18.924 173.546 19.7505 173.546 21.1613C173.546 22.572 172.608 23.9543 169.777 23.9543C168.383 23.9543 167.331 23.7405 166.35 23.3415L166.193 20.748H167.943L168.341 22.1018C168.696 22.287 169.223 22.3868 169.749 22.3868C170.531 22.3868 171.028 22.0448 171.028 21.432C171.028 20.9903 170.744 20.6483 170.147 20.4488L168.639 19.9643C167.103 19.4798 166.307 18.6248 166.307 17.2425C166.307 15.96 167.118 14.4353 169.934 14.4353C171.114 14.4353 172.422 14.6775 173.205 15.0195V17.4705L173.19 17.4563Z" fill="#3B1C13"/>
<path d="M183.843 21.7882H185.193V23.7263H182.079V22.1303C181.596 22.9283 180.572 23.9257 178.708 23.9257C176.76 23.9257 175.765 22.7145 175.765 20.3348V16.5443H174.456V14.6348H177.983V20.1068C177.983 21.204 178.338 21.8453 179.661 21.8453C180.458 21.8453 181.296 21.4035 181.652 20.748V16.5585H179.974V14.649H183.843V21.8168V21.7882Z" fill="#3B1C13"/>
<path d="M186.232 14.6205H189.602V16.6013C189.886 15.7463 190.953 14.421 192.176 14.421C192.588 14.421 193.172 14.4638 193.57 14.5208L193.385 17.0715L191.778 16.7723C190.925 16.8293 190.171 17.271 189.772 17.9693V21.8025H191.778V23.712H186.245V21.9735L187.554 21.6173V16.5443H186.245V14.6063L186.232 14.6205Z" fill="#3B1C13"/>
<path d="M201.62 21.1898L202.331 22.9425C201.377 23.541 200.055 23.94 198.861 23.94C195.717 23.94 194.423 21.945 194.423 19.1663C194.423 16.5728 195.816 14.421 198.603 14.421C201.391 14.421 202.43 16.4018 202.43 18.354C202.43 18.8528 202.373 19.5368 202.273 19.9073H196.769C196.813 21.1898 197.481 21.9593 198.874 21.9593C199.827 21.9593 200.765 21.6743 201.605 21.1755L201.62 21.1898ZM200.268 18.24C200.283 18.126 200.283 18.0263 200.283 17.955C200.283 16.8293 199.528 16.2735 198.603 16.2735C197.352 16.2735 196.87 17.157 196.798 18.2258H200.268V18.24Z" fill="#3B1C13"/>
<path d="M210.807 17.4563H209.057L208.801 16.245C208.446 16.1025 208.048 16.0313 207.549 16.0313C206.753 16.0313 206.398 16.4873 206.398 16.986C206.398 17.4278 206.582 17.7413 207.237 17.9693L208.673 18.411C210.323 18.924 211.162 19.7505 211.162 21.1613C211.162 22.572 210.223 23.9543 207.394 23.9543C206 23.9543 204.947 23.7405 203.966 23.3415L203.81 20.748H205.558L205.957 22.1018C206.313 22.287 206.838 22.3868 207.365 22.3868C208.147 22.3868 208.645 22.0448 208.645 21.432C208.645 20.9903 208.361 20.6483 207.763 20.4488L206.256 19.9643C204.72 19.4798 203.923 18.6248 203.923 17.2425C203.923 15.96 204.734 14.4353 207.549 14.4353C208.73 14.4353 210.039 14.6775 210.82 15.0195V17.4705L210.807 17.4563Z" fill="#3B1C13"/>
<path d="M138.674 49.419V47.6093L139.713 47.3243V37.9478H138.418V36.0098H141.746V37.0215C142.201 36.423 142.855 35.8103 144.263 35.8103C146.766 35.8103 148.089 37.5488 148.089 40.584C148.089 43.6193 146.852 45.3293 144.263 45.3293C143.026 45.3293 142.358 44.8448 141.931 44.3888V47.481H143.865V49.419H138.689H138.674ZM143.695 37.905C142.855 37.905 142.258 38.2898 141.916 38.6603V42.579C142.201 42.8355 142.728 43.2345 143.695 43.2345C145.301 43.2345 145.743 42.1088 145.743 40.584C145.743 39.0593 145.33 37.905 143.695 37.905Z" fill="#3B1C13"/>
<path d="M149.156 43.1918H150.35V33.174H149.156V31.2218H152.54V36.8505C153.038 36.366 153.948 35.8103 155.385 35.8103C157.475 35.8103 158.457 37.05 158.457 39.4013V43.1918H159.636V45.1013H154.93V43.1918H156.238V39.6435C156.238 38.5463 155.897 37.905 154.545 37.905C153.749 37.905 152.91 38.2898 152.54 38.589V43.206H153.834V45.1155H149.156V43.206V43.1918Z" fill="#3B1C13"/>
<path d="M160.888 47.6235H163.377L164.529 45.0443L161.343 37.9335H159.835V35.9955H163.775V37.905L165.609 42.4935L167.515 37.9193H165.51V35.9813H170.886V37.9193H169.692L165.653 47.5808C164.998 49.134 164.003 49.6043 162.837 49.6043C162.026 49.6043 161.358 49.4903 160.888 49.2195V47.6093V47.6235Z" fill="#3B1C13"/>
<path d="M178.751 38.8313H177.001L176.745 37.62C176.391 37.4775 175.992 37.4063 175.494 37.4063C174.698 37.4063 174.343 37.8623 174.343 38.361C174.343 38.8028 174.527 39.1163 175.181 39.3443L176.618 39.786C178.268 40.299 179.106 41.1255 179.106 42.5363C179.106 43.947 178.168 45.3293 175.338 45.3293C173.944 45.3293 172.892 45.1155 171.91 44.7165L171.754 42.123H173.503L173.901 43.4768C174.257 43.662 174.783 43.7618 175.31 43.7618C176.091 43.7618 176.59 43.4198 176.59 42.807C176.59 42.3653 176.305 42.0233 175.708 41.8238L174.2 41.3393C172.664 40.8548 171.868 39.9998 171.868 38.6175C171.868 37.335 172.678 35.8103 175.494 35.8103C176.675 35.8103 177.983 36.0525 178.765 36.3945V38.8455L178.751 38.8313Z" fill="#3B1C13"/>
<path d="M180.358 43.1918H182.263V37.9478H180.358V36.0098H184.482V43.1918H186.26V45.1013H180.358V43.1918ZM181.894 32.8463C181.894 31.8915 182.491 31.464 183.287 31.464C183.985 31.464 184.667 31.8773 184.667 32.8463C184.667 33.8153 183.985 34.1858 183.287 34.1858C182.491 34.1858 181.894 33.8295 181.894 32.8463Z" fill="#3B1C13"/>
<path d="M191.265 49.419V47.481H193.313V44.3888C192.873 44.8448 192.219 45.3293 190.967 45.3293C188.379 45.3293 187.141 43.548 187.141 40.584C187.141 37.62 188.449 35.8103 190.967 35.8103C192.275 35.8103 193.057 36.3518 193.698 36.9075L194.01 35.2118H195.518V47.4098L196.698 47.6948V49.4333H191.265V49.419ZM193.313 38.6603C192.972 38.2755 192.361 37.905 191.521 37.905C189.886 37.905 189.473 39.045 189.473 40.584C189.473 42.123 189.915 43.2345 191.521 43.2345C192.475 43.2345 193.029 42.8355 193.313 42.579V38.6603Z" fill="#3B1C13"/>
<path d="M206.383 43.1632H207.735V45.1013H204.62V43.5052C204.136 44.3032 203.112 45.3007 201.25 45.3007C199.301 45.3007 198.305 44.0895 198.305 41.7098V37.9193H196.997V36.0098H200.524V41.4818C200.524 42.579 200.88 43.2202 202.202 43.2202C202.998 43.2202 203.838 42.7785 204.193 42.123V37.9335H202.515V36.024H206.383V43.1918V43.1632Z" fill="#3B1C13"/>
<path d="M215.897 42.5648L216.608 44.3175C215.656 44.916 214.333 45.315 213.138 45.315C209.995 45.315 208.702 43.32 208.702 40.5413C208.702 37.9478 210.096 35.796 212.883 35.796C215.67 35.796 216.708 37.7768 216.708 39.729C216.708 40.2278 216.651 40.9118 216.552 41.2823H211.048C211.09 42.5648 211.759 43.3343 213.153 43.3343C214.106 43.3343 215.045 43.0493 215.883 42.5505L215.897 42.5648ZM214.546 39.615C214.561 39.501 214.56 39.4013 214.56 39.33C214.56 38.2043 213.807 37.6485 212.883 37.6485C211.632 37.6485 211.147 38.532 211.076 39.6008H214.546V39.615Z" fill="#3B1C13"/>
<path d="M225.07 38.8313H223.32L223.064 37.62C222.709 37.4775 222.311 37.4063 221.813 37.4063C221.017 37.4063 220.662 37.8623 220.662 38.361C220.662 38.8028 220.846 39.1163 221.5 39.3443L222.937 39.786C224.587 40.299 225.425 41.1255 225.425 42.5363C225.425 43.947 224.487 45.3293 221.657 45.3293C220.263 45.3293 219.211 45.1155 218.229 44.7165L218.073 42.123H219.823L220.22 43.4768C220.576 43.662 221.102 43.7618 221.629 43.7618C222.41 43.7618 222.909 43.4198 222.909 42.807C222.909 42.3653 222.624 42.0233 222.027 41.8238L220.519 41.3393C218.983 40.8548 218.187 39.9998 218.187 38.6175C218.187 37.335 218.997 35.8103 221.813 35.8103C222.994 35.8103 224.302 36.0525 225.084 36.3945V38.8455L225.07 38.8313Z" fill="#3B1C13"/>
<path d="M297.443 46.626C297.97 45.942 298.226 45.1298 298.226 44.2178C298.226 43.1918 297.843 42.2798 297.103 41.5388C296.377 40.7978 295.482 40.4273 294.415 40.4273H290.703C290.177 40.4273 289.821 40.7978 289.821 41.3108V53.3378C289.821 53.8507 290.191 54.2213 290.703 54.2213H294.87C295.951 54.2213 296.889 53.8365 297.671 53.0527C298.454 52.269 298.852 51.3285 298.852 50.2455V49.7183C298.852 48.9345 298.638 48.1793 298.198 47.5095C297.984 47.1675 297.728 46.8683 297.443 46.6118M295.211 45.1868C294.969 45.429 294.656 45.5573 294.229 45.5573H292.452V43.0635H294.415C294.771 43.0635 294.998 43.1633 295.24 43.3913C295.482 43.6335 295.581 43.8758 295.581 44.2178C295.581 44.6453 295.467 44.9303 295.211 45.201M292.452 48.2078H294.671C295.083 48.2078 295.439 48.3503 295.723 48.6495C296.036 48.963 296.178 49.3193 296.178 49.7325V50.2598C296.178 50.616 296.05 50.9153 295.78 51.186C295.509 51.4568 295.211 51.585 294.841 51.585H292.438V48.222L292.452 48.2078Z" fill="#3B1C13"/>
<path d="M305.692 40.242C304.412 40.242 303.303 40.698 302.407 41.61C301.497 42.522 301.042 43.6335 301.042 44.9018V49.8038C301.042 51.0863 301.497 52.1978 302.407 53.0955C303.317 54.0075 304.427 54.4635 305.692 54.4635C306.958 54.4635 308.081 54.0075 308.978 53.0955C309.888 52.1835 310.343 51.072 310.343 49.8038V44.9018C310.343 43.6193 309.888 42.5078 308.978 41.61C308.067 40.698 306.972 40.242 305.692 40.242ZM303.672 44.9018C303.672 44.3318 303.858 43.8758 304.27 43.4625C304.654 43.0778 305.123 42.8783 305.692 42.8783C306.261 42.8783 306.716 43.0635 307.114 43.4625C307.527 43.8758 307.711 44.3318 307.711 44.9018V49.8038C307.711 50.388 307.527 50.8155 307.114 51.2288C306.716 51.6278 306.247 51.8273 305.692 51.8273C305.138 51.8273 304.683 51.6278 304.27 51.2145C303.872 50.8298 303.687 50.3738 303.687 49.8038V44.9018H303.672Z" fill="#3B1C13"/>
<path d="M329.015 40.4273H326.043C325.517 40.4273 325.162 40.7978 325.162 41.3108V53.3377C325.162 53.8507 325.531 54.2213 326.043 54.2213H329.457C330.708 54.2213 331.774 53.7795 332.656 52.8818C333.538 51.9983 333.993 50.9153 333.993 49.6755V45.3863C333.993 44.0325 333.495 42.8355 332.528 41.8665C331.561 40.8975 330.38 40.413 329.015 40.413M329.457 51.5708H327.807V43.0635H329.015C329.669 43.0635 330.21 43.2915 330.651 43.7475C331.12 44.2178 331.347 44.7593 331.347 45.3863V49.6755C331.347 50.217 331.163 50.6303 330.779 51.015C330.395 51.3998 329.969 51.585 329.442 51.585" fill="#3B1C13"/>
<path d="M343.834 51.585H339.454V48.2077H343.109C343.606 48.2077 343.976 47.823 343.976 47.3243V46.455C343.976 45.9278 343.621 45.5715 343.109 45.5715H339.454V43.092H343.72C344.232 43.092 344.602 42.7073 344.602 42.2085V41.3393C344.602 40.8263 344.232 40.4557 343.72 40.4557H337.705C337.179 40.4557 336.823 40.8263 336.823 41.3393V53.3663C336.823 53.8793 337.193 54.2498 337.705 54.2498H343.849C344.361 54.2498 344.73 53.8793 344.73 53.3663V52.497C344.73 51.984 344.361 51.6135 343.849 51.6135" fill="#3B1C13"/>
<path d="M353.676 41.04C353.548 40.6553 353.235 40.4273 352.837 40.4273H351.23C350.832 40.4273 350.519 40.6553 350.391 41.0543L346.75 52.9958C346.708 53.0955 346.679 53.2238 346.679 53.352C346.679 53.865 347.049 54.2355 347.561 54.2355H348.471C348.883 54.2355 349.225 53.979 349.31 53.6085L350.391 50.103H353.676L354.742 53.6228V53.6655C354.899 54.0218 355.212 54.2213 355.596 54.2213H356.506C357.018 54.2213 357.388 53.8365 357.388 53.3378C357.388 53.2095 357.359 53.0955 357.317 53.01L353.662 41.04H353.676ZM353.022 47.4525H351.073L352.04 44.1465L353.022 47.4525Z" fill="#3B1C13"/>
<path d="M367.258 40.4273H366.391C365.879 40.4273 365.509 40.7978 365.509 41.3108V50.0888C365.509 50.5875 365.352 50.9723 365.011 51.3C364.669 51.642 364.271 51.813 363.801 51.813C363.332 51.813 362.934 51.642 362.578 51.2858C362.252 50.958 362.081 50.559 362.081 50.0745V41.2965C362.081 40.7692 361.711 40.413 361.199 40.413H360.331C359.819 40.413 359.45 40.7835 359.45 41.2965V50.0745C359.45 51.2715 359.876 52.3118 360.729 53.1668C361.583 54.0218 362.621 54.4493 363.816 54.4493C365.011 54.4493 366.048 54.0218 366.901 53.1668C367.741 52.3118 368.153 51.2715 368.153 50.0745V41.2965C368.153 40.7692 367.784 40.413 367.271 40.413" fill="#3B1C13"/>
<path d="M376.402 47.2958L379.473 41.6528L379.53 41.496C379.615 41.1255 379.488 40.869 379.374 40.7265C379.274 40.6125 379.061 40.413 378.677 40.413H377.795C377.425 40.413 377.127 40.6125 377.013 40.9118L374.966 44.6595L372.918 40.926C372.789 40.5983 372.491 40.3988 372.121 40.3988H371.239C370.855 40.3988 370.642 40.5983 370.542 40.7123C370.428 40.8548 370.301 41.1113 370.386 41.5103L370.443 41.667L373.515 47.2958L370.443 52.896L370.401 53.01C370.272 53.4233 370.428 53.694 370.514 53.8223C370.614 53.9505 370.826 54.1643 371.239 54.1643H372.15C372.505 54.1643 372.804 53.9648 372.946 53.637L374.966 49.932L376.985 53.6228C377.127 53.9648 377.44 54.1643 377.781 54.1643H378.692C379.09 54.1643 379.317 53.9505 379.416 53.8223C379.516 53.694 379.659 53.409 379.53 52.9958L376.416 47.2958H376.402Z" fill="#3B1C13"/>
<path d="M322.26 52.9958L319.856 48.4073C320.156 48.2363 320.44 48.0225 320.696 47.7518C321.449 46.9965 321.834 46.0703 321.834 45.0015V44.3175C321.834 43.2345 321.449 42.3083 320.696 41.553C319.957 40.7978 319.032 40.4273 317.951 40.4273H314.082C313.557 40.4273 313.201 40.7978 313.201 41.3108V53.3378C313.201 53.8507 313.57 54.2213 314.082 54.2213H314.951C315.463 54.2213 315.832 53.8365 315.832 53.3378V48.8918H317.24L319.714 53.637C319.871 53.979 320.169 54.1785 320.525 54.1785H321.436C321.847 54.1785 322.061 53.9648 322.16 53.8365C322.26 53.7083 322.403 53.4233 322.274 53.0243V52.9958M319.217 44.3175V45.0015C319.217 45.3435 319.103 45.6143 318.847 45.8708C318.576 46.1273 318.32 46.2413 317.979 46.2413H315.861V43.0635H317.979C318.32 43.0635 318.605 43.1775 318.832 43.4055C319.103 43.6905 319.217 43.9613 319.217 44.3033" fill="#3B1C13"/>
<path d="M280.832 46.7115H280.548C280.548 46.7115 280.449 46.683 280.449 46.6118V46.5405C280.449 46.5405 280.421 46.4407 280.349 46.4407C280.321 46.4407 280.307 46.4407 280.292 46.455C279.979 46.7115 279.624 46.8255 279.254 46.8255C278.585 46.8255 278.073 46.4835 277.675 45.7852C277.618 45.6855 277.59 45.5858 277.59 45.4718V43.8473C277.59 43.206 277.918 42.693 278.557 42.3082C278.572 42.3082 278.6 42.2798 278.629 42.2798C279.198 42.1373 279.71 42.1657 280.121 42.4507C280.136 42.4507 280.15 42.465 280.193 42.465C280.25 42.465 280.278 42.4365 280.278 42.3937V40.5412C280.278 40.5412 280.307 40.4415 280.377 40.4415H280.819C280.819 40.4415 280.904 40.47 280.904 40.5412V46.6118C280.904 46.6118 280.876 46.7115 280.819 46.7115M280.278 43.8615C280.278 43.5765 280.178 43.3343 279.979 43.1348C279.766 42.921 279.539 42.8355 279.254 42.8355C278.97 42.8355 278.714 42.9353 278.529 43.1348C278.329 43.3343 278.231 43.5765 278.231 43.8615V45.1725C278.231 45.4575 278.329 45.6998 278.529 45.8993C278.728 46.0988 278.97 46.1985 279.254 46.1985C279.539 46.1985 279.78 46.0988 279.979 45.8993C280.193 45.6855 280.278 45.4575 280.278 45.1725V43.8615Z" fill="#3B1C13"/>
<path d="M285.07 44.802H282.724C282.724 44.802 282.624 44.8305 282.624 44.9018V45.1725C282.624 45.4718 282.725 45.714 282.924 45.8993C283.136 46.113 283.364 46.2127 283.648 46.2127C284.004 46.2127 284.331 46.113 284.63 45.8993C284.672 45.8708 284.716 45.8708 284.744 45.9135L285 46.284C285 46.284 285.028 46.3838 284.972 46.4123C284.473 46.7828 283.876 46.8968 283.208 46.797C283.108 46.7828 283.009 46.74 282.924 46.6973C282.298 46.2983 281.985 45.8138 281.985 45.1583V43.4198C281.985 43.3343 281.999 43.263 282.042 43.1918C282.412 42.5363 282.924 42.1943 283.563 42.1943C284.004 42.1943 284.374 42.351 284.687 42.6645C285 42.978 285.142 43.3485 285.142 43.776V44.7023C285.142 44.7023 285.114 44.802 285.057 44.802M284.516 43.7902C284.516 43.5337 284.431 43.3058 284.246 43.1205C284.061 42.9353 283.834 42.8498 283.578 42.8498C283.322 42.8498 283.094 42.9353 282.909 43.1205C282.725 43.3058 282.624 43.5337 282.624 43.7902V44.0895C282.624 44.0895 282.653 44.1893 282.724 44.1893H284.431C284.431 44.1893 284.516 44.1608 284.516 44.0895V43.7902Z" fill="#3B1C13"/>
<path d="M312.661 27.5738V15.8745C312.661 15.561 312.462 15.4328 312.121 15.4328H309.234C308.835 15.4328 308.693 15.2618 308.693 14.9483V12.6255C308.693 12.312 308.85 12.1838 309.234 12.1838H312.121C312.462 12.1838 312.661 11.9985 312.661 11.685V6.11325C312.661 5.79975 312.861 5.62875 313.202 5.62875H315.733C316.088 5.62875 316.287 5.814 316.287 6.11325V11.685C316.287 11.9985 316.487 12.1838 316.828 12.1838H324.437C324.835 12.1838 324.977 12.312 324.977 12.6255V14.9483C324.977 15.2618 324.835 15.4328 324.437 15.4328H316.828C316.473 15.4328 316.287 15.561 316.287 15.8745V27.5738" fill="#009DE0"/>
<path d="M316.301 21.8168V28.1865C316.273 29.7683 316.487 31.0793 316.927 32.1053C317.368 33.1313 318.434 33.6585 320.112 33.6585C320.753 33.6585 321.549 33.5303 322.502 33.2738C323.455 33.0173 324.55 32.6183 325.773 32.1053C325.816 32.2478 325.844 32.3475 325.844 32.4188C325.844 32.49 325.873 32.5755 325.886 32.661C325.204 33.3308 323.939 34.0005 322.118 34.656C320.283 35.3115 318.633 35.6393 317.169 35.6393C315.903 35.6393 314.808 35.2403 313.898 34.4565C312.988 33.6728 312.533 32.319 312.533 30.3953V27.7305L312.675 23.5695" fill="#3B1C13"/>
<path d="M288.257 20.349V27.7875C288.257 29.0985 288.754 30.2385 289.793 31.179C290.831 32.1338 292.025 32.5755 293.504 32.5755C294.984 32.5755 296.178 32.1195 297.16 31.179C298.198 30.2243 298.738 29.0985 298.738 27.7875V12.6683C298.738 12.3548 298.88 12.2122 299.236 12.2122H301.81C302.151 12.2122 302.35 12.3405 302.35 12.6683V27.7875C302.35 30.0105 301.455 31.9058 299.734 33.4875C297.999 35.0693 295.922 35.8815 293.504 35.8815C291.087 35.8815 288.954 35.0693 287.219 33.4875C285.484 31.9058 284.645 29.9963 284.645 27.7875V20.349H288.257Z" fill="#3B1C13"/>
<path d="M288.257 12.7965C288.257 12.2835 287.859 11.9557 287.503 11.9557C286.991 11.9557 285.455 12.1837 284.645 12.1837C282.142 12.1837 281.886 12.084 281.374 12.084C280.961 12.084 280.606 12.369 280.606 12.882C280.606 13.395 280.961 13.7227 281.374 13.7227C281.886 13.7227 282.142 13.5375 284.645 13.5375V20.349H288.271V12.7822L288.257 12.7965Z" fill="#009DE0"/>
<path d="M273.126 10.0462C271.262 10.0462 269.883 8.17948 269.883 6.42673C269.883 4.80223 271.504 3.17773 273.126 3.17773C274.874 3.17773 276.666 4.63123 276.666 6.42673C276.666 8.47873 275.159 10.0462 273.126 10.0462Z" fill="#009DE0"/>
<path d="M275.955 19.5083V34.8128C275.955 35.1263 275.771 35.3115 275.458 35.3115H273.154C272.798 35.3115 272.656 35.1263 272.656 34.8128V21.7028L275.955 19.5083Z" fill="#3B1C13"/>
<path d="M275.955 19.5083V12.1125H270.153V15.105H272.656V21.7028L275.955 19.5083Z" fill="#009DE0"/>
<path d="M128.876 13.6229C127.069 11.7846 123.457 11.8559 121.935 11.9699C121.608 11.9984 114.184 12.7679 98.5979 15.3044L98.6263 13.0101C98.6405 11.6279 97.5455 10.5021 96.166 10.4879H96.1375C94.7723 10.4879 93.663 11.5851 93.6488 12.9531L93.5919 17.8694C93.5492 18.1259 93.535 18.3966 93.5919 18.6674L93.407 33.6584C93.3359 33.6869 93.2648 33.7011 93.1937 33.7296C79.1143 39.6861 71.2214 30.1671 66.9833 25.0514C66.2723 24.1964 65.7176 23.5266 65.2056 23.0279C63.3853 21.2751 61.6076 20.9759 60.413 21.0471C57.8104 21.1896 56.1465 23.1134 55.9616 23.3414C55.8905 23.4269 55.8194 23.5266 55.7625 23.6264C52.9467 28.2006 49.4055 33.2879 47.0589 36.0239C47.1158 34.3994 47.258 32.4186 47.3718 30.8654C47.9265 23.5694 48.1398 19.3514 46.2625 17.3136C45.5941 16.6011 44.6982 16.2021 43.7453 16.2021C42.9774 16.2021 41.5836 16.2021 39.3793 19.4226C39.9624 12.6681 39.6922 6.29838 37.4025 2.94963C36.2506 1.25388 34.6293 0.256381 32.7236 0.0426308C21.1615 -1.28262 4.94891 31.1361 0.241571 41.0826C-0.341513 42.3224 0.184684 43.8186 1.42196 44.4029C2.65924 45.0014 4.1525 44.4599 4.73559 43.2201C13.6525 24.3674 26.6937 4.43163 32.169 5.00163C32.4961 5.04438 32.8658 5.15838 33.2783 5.75688C36.7625 10.8584 33.136 31.0364 30.0357 42.5504C29.6802 43.8614 30.4482 45.2151 31.7565 45.5999C31.9841 45.6711 32.2116 45.6996 32.4534 45.6996C33.52 45.6996 34.5013 45.0014 34.8284 43.9326C37.2034 36.1521 40.517 27.3741 42.764 23.2701C42.764 25.4646 42.5507 28.4144 42.3943 30.4949C41.8396 37.9334 41.4983 42.4221 45.139 42.8354C46.419 42.9921 49.4339 43.3341 59.8441 26.4621C60.029 26.2911 60.3845 26.0489 60.6832 26.0346C61.0814 26.0346 61.4938 26.3909 61.7214 26.6189C62.0342 26.9181 62.5462 27.5309 63.1293 28.2434C67.3104 33.2879 76.9384 44.8731 93.3217 39.0164L93.1226 54.4919C93.1083 55.8741 94.2034 56.9999 95.5829 57.0141H95.6113C96.9766 57.0141 98.0859 55.9169 98.1001 54.5489L98.3277 36.9216C98.4699 36.8789 98.6263 36.8361 98.7685 36.7649L119.844 25.8351C126.329 22.1159 129.729 19.0094 129.942 16.6011C130.042 15.4896 129.672 14.4351 128.889 13.6371L128.876 13.6229ZM117.455 21.4319L98.3988 31.3214L98.541 20.3774C114.54 17.7554 122.362 16.9431 122.376 16.9431C122.889 16.9004 123.471 16.9146 123.983 16.9431C122.546 18.1971 119.987 19.9784 117.455 21.4319Z" fill="#009DE0"/>
</g>
</g>
<defs>
<clipPath id="clip0_2138_186">
<rect width="380" height="57" fill="white"/>
</clipPath>
</defs>
</svg>
